<svg width="24" height="24" viewBox="0 0 24 24" fill="none" xmlns="http://www.w3.org/2000/svg">
  <g clip-path="url(#clip0_201_2981)">
    <path d="M18.971 9.744V4.881c0 -1.068 -0.868 -1.935 -1.935 -1.935H2.519a1.935 1.935 0 0 0 -1.935 1.935v9.677c0 1.067 0.868 1.935 1.935 1.935H13.37c0.635 2.23 2.686 3.871 5.117 3.871a5.319 5.319 0 0 0 2.662 -0.712 0.484 0.484 0 1 0 -0.485 -0.838 4.335 4.335 0 0 1 -2.177 0.582 4.359 4.359 0 0 1 -4.355 -4.355 4.359 4.359 0 0 1 4.355 -4.355 4.359 4.359 0 0 1 4.355 4.355v0.484c0 0.533 -0.434 0.968 -0.968 0.968 -0.534 0 -0.968 -0.434 -0.968 -0.968v-1.935a0.484 0.484 0 0 0 -0.818 -0.348 2.4 2.4 0 0 0 -1.603 -0.619 2.423 2.423 0 0 0 -2.419 2.419 2.423 2.423 0 0 0 2.419 2.419c0.721 0 1.363 -0.324 1.805 -0.826a1.932 1.932 0 0 0 3.517 -1.109v-0.484c0 -2.772 -2.13 -5.052 -4.839 -5.299M2.519 3.914h14.516c0.02 0 0.037 0.01 0.057 0.011l-6.917 5.678c-0.246 0.155 -0.603 0.123 -0.763 0.025L2.463 3.924c0.02 -0.001 0.036 -0.011 0.057 -0.011m15.484 5.83c-2.709 0.245 -4.839 2.527 -4.839 5.299 0 0.163 0.01 0.324 0.024 0.484H2.519c-0.534 0 -0.968 -0.434 -0.968 -0.968v-9.677c0 -0.137 0.03 -0.267 0.082 -0.385l7.208 5.91c0.281 0.184 0.605 0.281 0.936 0.281a1.703 1.703 0 0 0 0.982 -0.313l7.162 -5.878c0.052 0.118 0.082 0.248 0.082 0.385zm0.484 6.75a1.453 1.453 0 0 1 -1.452 -1.452c0 -0.801 0.651 -1.452 1.452 -1.452s1.452 0.65 1.452 1.452a1.453 1.453 0 0 1 -1.452 1.452" fill="#FAFAFA"/>
  </g>
  <defs>
    <clipPath id="clip0_201_2981">
      <path width="30" height="30" fill="white" transform="translate(.754 .055)" d="M0 0H23.226V23.226H0V0z"/>
    </clipPath>
  </defs>
</svg>
